<svg viewBox="0 0 252 436" xmlns="http://www.w3.org/2000/svg"><path d="m122 23c15.8 0 31.1 2.6 42 7.2 9.8 4.2 12 8.2 12 8.8s-2.2 4.6-12 8.8c-10.9 4.6-26.2 7.2-42 7.2s-31.1-2.6-42-7.2c-9.8-4.2-12-8.2-12-8.8s2.2-4.6 12-8.8c10.9-4.6 26.2-7.2 42-7.2m0-12c-36.5 0-66 12.5-66 28s29.5 28 66 28 66-12.5 66-28-29.5-28-66-28z"/><g fill="none" stroke="#000" stroke-miterlimit="10" stroke-width="12"><path d="m58.5 180.5c0-38-1-101-1-138-2-35 131-37 130 4s-3 95-6 134c-33.7 29.5-86.3 30.2-123 0z"/><path d="m59 176c-1.5 84.5-40.5 96.5-40.5 149.5-.5 59.5 66 92 112.5 89.5s89-28.7 92.5-91.5c.5-56.6-36.5-71.5-41-145-57.5 53.5-125 8-123.5-2.5z"/><path d="m90.5 199.5c-5.8 48.3-19 79-23 90s-12 27-14 53 3.9 44 4 51"/><path d="m121.5 206.5c1.4 25.6.4 52 1 79 .4 20.4 0 33.2 0 104v22"/><path d="m153.5 197.5c6 49 26.2 95.2 32 125s-1.9 75-2 77"/></g></svg>