<svg viewBox="0 0 681 190.7" xmlns="http://www.w3.org/2000/svg"><clipPath id="a"><path d="m150.4 22.7h34.1v64.7h-34.1z"/></clipPath><clipPath id="b"><path d="m99.6 14.1h70.5v71.2h-70.5z"/></clipPath><clipPath id="c"><path d="m162.5 49.7h21.9v40.5h-21.9z"/></clipPath><clipPath id="d"><path d="m219.7 54.3h444.3v56.4h-444.3z"/></clipPath><path clip-path="url(#a)" d="m163.4 79.9c-28.4-26.9-1.5-57.2-1.5-57.2 14.6 10.6 40.4 44.1 3.6 64.7 7.6-32.4-1.3-51.5-1.3-51.5s5.7 20.4-.8 44" fill="#ccd448" opacity=".7"/><path clip-path="url(#b)" d="m156.3 78.6s-55.1-1.1-56.7-64.5c26.2-.7 86.1 7.6 66.7 71.1-21.8-44.5-53.3-59.7-53.3-59.7s32.1 23.5 43.3 53.1" fill="#9cbe4e" opacity=".7"/><path clip-path="url(#c)" d="m178.9 49.7c2.5 4.1 16.9 34.6-14.2 40.5 13.3-18.8 12.7-32.7 12.7-32.7s-3.1 14.6-12.3 27.2c-10.2-24.6 13.8-35 13.8-35" fill="#579753" opacity=".7"/><path d="m113 25.5s1.3 1 3.7 2.7c2.4 1.8 5.9 4.5 10.2 8.2 4.2 3.8 9.2 8.5 14.2 14.5 5 6.1 10.1 13.5 14 22.4s6.6 19.3 7.1 30.5c.1 2.8 0 5.6-.1 8.5-.1 1.4-.3 2.8-.4 4.3-.1 1.4-.3 2.9-.6 4.3-.3 1.5-.6 2.9-.9 4.4s-.9 2.9-1.3 4.3c-.8 2.9-2.1 5.6-3.3 8.5-2.8 5.4-6 10.9-10.2 15.5l-1.5 1.8-1.7 1.7c-1.1 1.1-2.3 2.2-3.4 3.3-2.5 2-4.9 4.1-7.7 5.8-2.6 1.9-5.5 3.3-8.4 4.8-1.5.7-3 1.3-4.5 1.9l-2.3.9-2.3.7c-6.2 2.1-12.8 2.9-19.3 3.3l-4.9-.1c-1.8 0-3.2-.3-4.9-.4-3.2-.2-6.4-1.1-9.6-1.8-1.6-.4-3.1-1-4.7-1.5l-2.3-.8c-.8-.3-1.5-.6-2.2-1l-4.4-2-4.2-2.4c-5.5-3.3-10.6-7.2-14.9-11.9-2.3-2.2-4.1-4.8-6.1-7.2-.9-1.3-1.7-2.6-2.6-3.9l-1.3-1.9-1.1-2c-.7-1.4-1.4-2.7-2.1-4.1-.6-1.4-1.1-2.8-1.7-4.2-.3-.7-.6-1.4-.8-2.1l-.6-2.1c-.4-1.4-.8-2.9-1.2-4.3-1.2-5.8-2-11.5-1.8-17.1 0-1.4 0-2.8.1-4.2.2-1.4.3-2.7.5-4 .1-1.3.4-2.7.7-4s.5-2.6.8-3.9c.8-2.5 1.3-5.1 2.3-7.4.5-1.2.9-2.4 1.4-3.5s1.1-2.2 1.6-3.3c4.3-8.8 10.3-15.7 16.2-20.8 6-5.2 12-8.7 17.1-11 5.2-2.2 9.4-3.5 12.4-4.2 3-.6 4.5-1 4.5-1s-1.6.4-4.5 1.1-7.1 2.1-12.2 4.5-10.9 6-16.7 11.3c-5.9 5.4-11.6 12.3-15.7 21-.5 1.1-1 2.2-1.5 3.3-.4 1.1-.9 2.3-1.3 3.5-1 2.3-1.5 4.8-2.2 7.2-.3 1.2-.5 2.5-.7 3.8s-.5 2.6-.6 3.9-.3 2.7-.4 4 0 2.7 0 4c-.2 5.5.8 11 2 16.6 1.6 5.5 3.4 11.1 6.4 16.2l1 2 1.2 1.9c.8 1.2 1.7 2.5 2.5 3.7 1.9 2.3 3.7 4.8 5.9 6.9 4.2 4.5 9.1 8.2 14.5 11.4l4.1 2.3 4.3 1.9c.7.3 1.4.6 2.2.9l2.2.7c1.5.5 3 1 4.5 1.4 3.1.6 6 1.4 9.3 1.7 1.6.1 3.3.5 4.7.4h4.7c6.3-.3 12.6-1 18.6-3.1l2.3-.7 2.2-.9c1.4-.6 2.9-1.1 4.3-1.8 2.8-1.5 5.6-2.8 8.1-4.6 2.7-1.6 5-3.7 7.4-5.6 1.1-1 2.2-2.1 3.3-3.2l1.6-1.6 1.5-1.7c4.1-4.5 7.3-9.7 10-15 1.2-2.7 2.5-5.4 3.3-8.2.4-1.4 1-2.8 1.3-4.2s.6-2.8.9-4.2c.4-1.4.5-2.8.7-4.2s.3-2.8.5-4.2c.1-2.7.3-5.5.2-8.3-.3-10.9-2.8-21.2-6.6-30s-8.7-16.2-13.5-22.4-9.7-11-13.8-14.8-7.6-6.6-9.9-8.4c-2.4-1.7-3.6-2.7-3.6-2.7" fill="#89b33c"/><path clip-path="url(#d)" d="m274.1 109.8h-2.7v-45.3l-23.5 45.3h-2.1l-23.4-45.3v45.3h-2.7v-51.7h2.4l24.8 47.8 24.6-47.8h2.6z" fill="#87b43d"/><path clip-path="url(#d)" d="m323.7 109.8h-2.7v-9.3c-3.2 6.3-9.6 10.1-16.8 10.1-10.4 0-19.1-7.7-19.1-19.7s8.7-19.6 19.1-19.6c7.3 0 13.7 3.7 16.8 10v-9.3h2.7zm-2.7-18.8c0-10.5-8.1-17.1-16.6-17.1-9.1 0-16.7 6.6-16.7 17.1 0 10.6 7.6 17.2 16.7 17.2 8.5 0 16.6-6.6 16.6-17.2" fill="#87b43d"/><path clip-path="url(#d)" d="m358.3 107.6c-2.5 2.1-4.9 3.1-7.9 3.1-6.3 0-10.6-4.2-10.6-11v-25.1h-8.3v-2.4h8.3v-12.5h2.7v12.5h14.4v2.4h-14.4v25.1c0 5.2 3.2 8.5 8 8.5 2.5 0 4.7-1 6.6-2.7z" fill="#87b43d"/><path clip-path="url(#d)" d="m395.9 98.8 2.5.8c-2.1 7-9.2 11.1-17.1 11.1-10.2 0-19.2-7.6-19.2-19.7 0-11.7 9-19.6 19.2-19.6 7.9 0 15 4.4 17.1 11.5l-2.5.9c-1.9-6.2-8-9.9-14.7-9.9-8.8 0-16.6 6.9-16.6 17.1 0 10.6 7.8 17.1 16.6 17.1 6.7 0 12.8-3.3 14.7-9.3" fill="#87b43d"/><path clip-path="url(#d)" d="m444.1 87.6v22.2h-2.7v-22c0-8.3-5-14-12.6-14-9.6 0-15.9 6.5-15.9 16.7v19.2h-2.7v-55.4h2.7v27c2.8-6.2 8.5-9.9 16-9.9 9.2 0 15.2 6.5 15.2 16.2" fill="#87b43d"/><path clip-path="url(#d)" d="m493 109.8h-2.7v-9.3c-3.2 6.3-9.6 10.1-16.8 10.1-10.4 0-19.1-7.7-19.1-19.7s8.7-19.6 19.1-19.6c7.3 0 13.7 3.7 16.8 10v-9.3h2.7zm-2.7-18.8c0-10.5-8.1-17.1-16.6-17.1-9.1 0-16.7 6.6-16.7 17.1 0 10.6 7.6 17.2 16.7 17.2 8.5 0 16.6-6.6 16.6-17.2" fill="#87b43d"/><path clip-path="url(#d)" d="m527.9 109.8h-2.6l-22.8-51.7h3.1l21 47.7 21.1-47.7h3z" fill="#87b43d"/><path clip-path="url(#d)" d="m590.4 109.8h-2.7v-9.3c-3.2 6.3-9.6 10.1-16.8 10.1-10.4 0-19.1-7.7-19.1-19.7s8.7-19.6 19.1-19.6c7.3 0 13.7 3.7 16.8 10v-9.3h2.7zm-2.7-18.8c0-10.5-8.1-17.1-16.6-17.1-9.1 0-16.7 6.6-16.7 17.1 0 10.6 7.6 17.2 16.7 17.2 8.5 0 16.6-6.6 16.6-17.2" fill="#87b43d"/><path clip-path="url(#d)" d="m664 84.8v25h-2.6v-24.7c0-6.7-4.6-11.2-11.4-11.2-8.3 0-13.7 6.2-13.7 15.9v20.1h-2.7v-24.8c0-6.7-4.6-11.2-11.3-11.2-8.2 0-13.6 6.2-13.6 15.9v20.1h-2.7v-37.7h2.7v8.3c2.5-5.6 7.4-9 14-9s11.6 3.6 13.1 9.4c2.5-5.9 7.8-9.4 14.7-9.4 7.9-.1 13.5 5.2 13.5 13.3" fill="#87b43d"/><g fill="#94c5b6"><path d="m227.5 149.8c-2 0-3.6-.7-4.8-2s-1.8-3-1.8-5 .6-3.7 1.8-5 2.8-2 4.8-2 3.6.7 4.8 2 1.8 3 1.8 5-.6 3.7-1.8 5c-1.3 1.3-2.9 2-4.8 2zm0-1.1c1.6 0 2.9-.6 3.9-1.7s1.5-2.6 1.5-4.3c0-1.8-.5-3.2-1.5-4.3s-2.3-1.7-3.9-1.7-2.9.6-3.9 1.7-1.5 2.6-1.5 4.3.5 3.2 1.5 4.3c.9 1.1 2.2 1.7 3.9 1.7z"/><path d="m256 149.5h-1.2v-12.6h-4.5v-1.1h10.1v1.1h-4.4z"/><path d="m286.9 149.5h-1.5l-5.6-6.4-1.5 1.7v4.8h-1.2v-13.6h1.2v7.5l6.6-7.5h1.5l-5.8 6.5z"/><path d="m304.6 149.5h-1.2v-13.6h5.1c1.3 0 2.3.4 3 1.2s1.1 1.7 1.1 2.8-.4 2.1-1.1 2.8c-.7.8-1.7 1.2-3 1.2h-3.9zm3.8-6.7c.9 0 1.6-.3 2.2-.8s.8-1.2.8-2.1-.3-1.6-.8-2.1-1.3-.8-2.2-.8h-3.8v5.8z"/><path d="m335.5 149.8c-2 0-3.6-.7-4.8-2s-1.8-3-1.8-5 .6-3.7 1.8-5 2.8-2 4.8-2 3.6.7 4.8 2 1.8 3 1.8 5-.6 3.7-1.8 5-2.8 2-4.8 2zm0-1.1c1.6 0 2.9-.6 3.9-1.7s1.5-2.6 1.5-4.3c0-1.8-.5-3.2-1.5-4.3s-2.3-1.7-3.9-1.7-2.9.6-3.9 1.7-1.5 2.6-1.5 4.3.5 3.2 1.5 4.3 2.3 1.7 3.9 1.7z"/><path d="m360.5 149.5h-1.1v-13.6h1.2v11.5l8.5-11.5h1.2v13.6h-1.3v-11.7zm7.8-16.3c-.9 1.2-2.1 1.8-3.6 1.8s-2.7-.6-3.6-1.8l.6-.5c.7 1 1.7 1.5 3 1.5s2.3-.5 3-1.5z"/><path d="m413.9 149.8c-2 0-3.6-.7-4.9-2s-2-3-2-5.1.7-3.8 2-5.1 3-2 4.9-2c2 0 3.7.8 5 2.4l-1 .6c-.4-.6-1-1.1-1.7-1.4-.7-.4-1.5-.5-2.3-.5-1.6 0-3 .6-4.1 1.7s-1.6 2.6-1.6 4.3.5 3.2 1.6 4.3 2.4 1.7 4.1 1.7c.8 0 1.6-.2 2.3-.5.7-.4 1.3-.8 1.7-1.4l1 .6c-1.3 1.5-3 2.4-5 2.4z"/><path d="m441.3 149.5h-5.7v-13.6h5.6c1.1 0 2.1.3 2.7.9.7.6 1 1.5 1 2.5 0 .8-.2 1.5-.7 2.1s-1 .9-1.7 1.1c.7.1 1.3.5 1.9 1.2.5.7.8 1.4.8 2.2 0 1.1-.3 2-1 2.7-.8.6-1.7.9-2.9.9zm-.3-7.5c.8 0 1.5-.2 2-.7s.7-1.1.7-1.8-.2-1.3-.7-1.8-1.1-.7-2-.7h-4.3v5zm.1 6.5c.9 0 1.6-.2 2.1-.7s.8-1.1.8-2c0-.7-.3-1.4-.8-1.9s-1.2-.8-2.1-.8h-4.4v5.4z"/><path d="m468.5 149.8c-2 0-3.6-.7-4.8-2s-1.8-3-1.8-5 .6-3.7 1.8-5 2.8-2 4.8-2 3.6.7 4.8 2 1.8 3 1.8 5-.6 3.7-1.8 5-2.8 2-4.8 2zm0-1.1c1.6 0 2.9-.6 3.9-1.7s1.5-2.6 1.5-4.3c0-1.8-.5-3.2-1.5-4.3s-2.3-1.7-3.9-1.7-2.9.6-3.9 1.7-1.5 2.6-1.5 4.3.5 3.2 1.5 4.3 2.3 1.7 3.9 1.7z"/><path d="m493.5 149.5h-1.1v-13.6h1.2v11.5l8.5-11.5h1.2v13.6h-1.3v-11.7zm7.8-16.3c-.9 1.2-2.1 1.8-3.6 1.8s-2.7-.6-3.6-1.8l.6-.5c.7 1 1.7 1.5 3 1.5s2.3-.5 3-1.5z"/><path d="m553.3 149.5h-1.2v-12l-5 12h-.5l-5-12v12h-1.2v-13.6h1.7l4.6 11.2 4.6-11.2h1.8v13.6z"/><path d="m582.2 149.5h-1.3l-1.3-3.4h-7.2l-1.3 3.4h-1.3l5.6-13.6h1.5zm-3.1-4.4-3.2-8-3.2 8z"/><path d="m603.1 149.5h-1.1v-12.6h-4.5v-1.1h10.1v1.1h-4.5z"/><path d="m625.1 135.9v3.5c0 1.1.3 1.9.9 2.5s1.5.9 2.6.9 2.2-.1 3.4-.4v-6.5h1.2v13.6h-1.2v-6.1c-1.2.3-2.3.5-3.4.5-1.5 0-2.6-.4-3.4-1.2s-1.2-1.9-1.2-3.3v-3.5z"/><path d="m662 149.5h-1.3l-1.3-3.4h-7.2l-1.3 3.4h-1.3l5.6-13.6h1.5zm-3.1-4.4-3.2-8-3.2 8z"/></g></svg>