<?xml version="1.0" encoding="iso-8859-1"?>
<!-- Generator: Adobe Illustrator 18.1.1, SVG Export Plug-In . SVG Version: 6.00 Build 0)  -->
<svg version="1.1" id="Capa_1" xmlns="http://www.w3.org/2000/svg" xmlns:xlink="http://www.w3.org/1999/xlink" x="0px" y="0px"
	 viewBox="0 0 59.178 59.178" style="enable-background:new 0 0 59.178 59.178;" xml:space="preserve">
<g>
	<g>
		<path style="fill:#010002;" d="M57.285,56.028H36.721c7.051-2.708,12.247-9.182,13.078-16.957h2.018
			c4.059,0,7.361-3.302,7.361-7.36s-3.302-7.361-7.361-7.361H48.42H10.365c-0.829,0-1.5,0.672-1.5,1.5v11.027
			c0,8.734,5.493,16.192,13.199,19.151H1.5c-0.829,0-1.5,0.672-1.5,1.5s0.671,1.5,1.5,1.5h55.785c0.829,0,1.5-0.672,1.5-1.5
			S58.114,56.028,57.285,56.028z M56.178,31.711c0,2.404-1.956,4.36-4.361,4.36H49.92v-8.722h1.897
			C54.221,27.349,56.178,29.305,56.178,31.711z M11.865,36.877V27.35H46.92v9.527c0,9.665-7.863,17.527-17.527,17.527
			S11.865,46.542,11.865,36.877z"/>
		<path style="fill:#010002;" d="M17.809,9.285c1.744,0.736,2.751,1.59,2.837,2.404c0.127,1.204-1.534,2.781-2.358,3.356
			c-0.68,0.471-0.85,1.403-0.38,2.084c0.291,0.422,0.76,0.648,1.236,0.648c0.293,0,0.59-0.086,0.85-0.266
			c0.408-0.281,3.974-2.842,3.637-6.126c-0.207-2.013-1.773-3.649-4.619-4.85c-0.744-0.337-1.581-1.058-1.572-1.353
			c0-0.009,0.169-0.906,3.369-2.13c0.773-0.297,1.161-1.164,0.865-1.938c-0.295-0.772-1.16-1.16-1.937-0.865
			c-3.505,1.342-5.238,2.926-5.295,4.842C14.364,7.648,17.424,9.111,17.809,9.285z"/>
		<path style="fill:#010002;" d="M28.155,9.285c1.744,0.736,2.751,1.59,2.837,2.404c0.127,1.204-1.534,2.781-2.358,3.356
			c-0.68,0.471-0.85,1.403-0.38,2.084c0.291,0.422,0.76,0.648,1.236,0.648c0.293,0,0.59-0.086,0.85-0.266
			c0.408-0.281,3.974-2.842,3.637-6.126c-0.207-2.013-1.773-3.649-4.619-4.85c-0.744-0.337-1.581-1.058-1.572-1.353
			c0-0.009,0.169-0.906,3.369-2.13c0.773-0.297,1.161-1.164,0.865-1.938c-0.295-0.772-1.161-1.16-1.937-0.865
			c-3.505,1.342-5.238,2.926-5.295,4.842C24.71,7.648,27.769,9.111,28.155,9.285z"/>
		<path style="fill:#010002;" d="M38.219,9.285c1.744,0.736,2.751,1.59,2.837,2.404c0.127,1.204-1.534,2.781-2.358,3.356
			c-0.68,0.471-0.85,1.403-0.38,2.084c0.291,0.422,0.76,0.648,1.236,0.648c0.293,0,0.59-0.086,0.85-0.266
			c0.408-0.281,3.974-2.842,3.637-6.126c-0.207-2.013-1.773-3.649-4.619-4.85c-0.744-0.337-1.581-1.058-1.572-1.353
			c0-0.009,0.169-0.906,3.369-2.13c0.773-0.297,1.161-1.164,0.865-1.938c-0.295-0.772-1.161-1.16-1.937-0.865
			c-3.505,1.342-5.238,2.926-5.295,4.842C34.774,7.648,37.833,9.111,38.219,9.285z"/>
	</g>
</g>
<g>
</g>
<g>
</g>
<g>
</g>
<g>
</g>
<g>
</g>
<g>
</g>
<g>
</g>
<g>
</g>
<g>
</g>
<g>
</g>
<g>
</g>
<g>
</g>
<g>
</g>
<g>
</g>
<g>
</g>
</svg>
