<?xml version="1.0" encoding="utf-8"?>
<!-- Generator: Adobe Illustrator 23.0.1, SVG Export Plug-In . SVG Version: 6.00 Build 0)  -->
<svg version="1.1" id="Слой_1" xmlns="http://www.w3.org/2000/svg" xmlns:xlink="http://www.w3.org/1999/xlink" x="0px" y="0px"
	 viewBox="0 0 161.7 163.8" style="enable-background:new 0 0 161.7 163.8;" xml:space="preserve">
<style type="text/css">
	.st0{opacity:0.7;}
	.st1{clip-path:url(#XMLID_2_);fill:#E4E473;}
	.st2{clip-path:url(#XMLID_3_);fill:#E5C323;}
	.st3{clip-path:url(#XMLID_4_);fill:#E5C323;}
	.st4{fill:#E5C323;}
	.st5{fill:#F3D02A;}
</style>
<g id="XMLID_255_">
	<g id="XMLID_783_" class="st0">
		<g id="XMLID_784_">
			<defs>
				<rect id="XMLID_785_" x="127.6" y="8.6" width="34.1" height="64.7"/>
			</defs>
			<clipPath id="XMLID_2_">
				<use xlink:href="#XMLID_785_"  style="overflow:visible;"/>
			</clipPath>
			<path id="XMLID_786_" class="st1" d="M140.7,65.9c-28.4-26.9-1.5-57.2-1.5-57.2c14.6,10.6,40.4,44.1,3.6,64.7
				c7.6-32.4-1.3-51.5-1.3-51.5S147.2,42.3,140.7,65.9"/>
		</g>
	</g>
	<g id="XMLID_779_" class="st0">
		<g id="XMLID_780_">
			<defs>
				<rect id="XMLID_781_" x="76.9" y="0" width="70.5" height="71.2"/>
			</defs>
			<clipPath id="XMLID_3_">
				<use xlink:href="#XMLID_781_"  style="overflow:visible;"/>
			</clipPath>
			<path id="XMLID_782_" class="st2" d="M133.6,64.6c0,0-55.1-1.1-56.7-64.5c26.2-0.7,86.1,7.6,66.7,71.1
				c-21.9-44.5-53.4-59.7-53.4-59.7S122.4,35,133.6,64.6"/>
		</g>
	</g>
	<g id="XMLID_775_" class="st0">
		<g id="XMLID_776_">
			<defs>
				<rect id="XMLID_777_" x="139.8" y="35.6" width="21.9" height="40.5"/>
			</defs>
			<clipPath id="XMLID_4_">
				<use xlink:href="#XMLID_777_"  style="overflow:visible;"/>
			</clipPath>
			<path id="XMLID_778_" class="st3" d="M156.2,35.6c2.5,4.1,16.9,34.6-14.2,40.5c13.3-18.8,12.7-32.7,12.7-32.7
				s-3.1,14.6-12.3,27.2C132.2,46.1,156.2,35.6,156.2,35.6"/>
		</g>
	</g>
	<path id="XMLID_774_" class="st4" d="M90.2,11.5c0,0,1.3,1,3.7,2.7c2.4,1.8,5.9,4.5,10.2,8.2c4.2,3.8,9.2,8.5,14.2,14.5
		c5,6.1,10.1,13.5,14,22.4c3.9,8.9,6.6,19.3,7.1,30.5c0.1,2.8,0,5.6-0.1,8.5c-0.1,1.4-0.3,2.8-0.4,4.3c-0.1,1.4-0.3,2.9-0.6,4.3
		c-0.3,1.5-0.6,2.9-0.9,4.4c-0.3,1.5-0.9,2.9-1.3,4.3c-0.8,2.9-2.1,5.6-3.3,8.5c-2.8,5.4-6,10.9-10.2,15.5l-1.5,1.8l-1.7,1.7
		c-1.1,1.1-2.3,2.2-3.4,3.3c-2.5,2-4.9,4.1-7.7,5.8c-2.6,1.9-5.5,3.3-8.4,4.8c-1.5,0.7-3,1.3-4.5,1.9l-2.3,0.9l-2.3,0.7
		c-6.2,2.1-12.8,2.9-19.3,3.3l-4.9-0.1c-1.8,0-3.2-0.3-4.9-0.4c-3.2-0.2-6.4-1.1-9.6-1.8c-1.6-0.4-3.1-1-4.7-1.5l-2.3-0.8
		c-0.8-0.3-1.5-0.6-2.2-1l-4.4-2l-4.2-2.4c-5.5-3.3-10.6-7.2-14.9-11.9c-2.3-2.2-4.1-4.8-6.1-7.2c-0.9-1.3-1.7-2.6-2.6-3.9l-1.3-1.9
		l-1.1-2c-0.7-1.4-1.4-2.7-2.1-4.1c-0.6-1.4-1.1-2.8-1.7-4.2c-0.3-0.7-0.6-1.4-0.8-2.1l-0.6-2.1c-0.4-1.4-0.8-2.9-1.2-4.3
		c-1.2-5.8-2-11.5-1.8-17.1c0-1.4,0-2.8,0.1-4.2c0.2-1.4,0.3-2.7,0.5-4c0.1-1.3,0.4-2.7,0.7-4c0.3-1.3,0.5-2.6,0.8-3.9
		c0.8-2.5,1.3-5.1,2.3-7.4c0.5-1.2,0.9-2.4,1.4-3.5c0.5-1.1,1.1-2.2,1.6-3.3c4.3-8.8,10.3-15.7,16.2-20.8c6-5.2,12-8.7,17.1-11
		c5.2-2.2,9.4-3.5,12.4-4.2c3-0.6,4.5-1,4.5-1S56,26.3,53.1,27c-2.9,0.7-7.1,2.1-12.2,4.5c-5.1,2.4-10.9,6-16.7,11.3
		C18.5,48,12.8,54.9,8.7,63.5c-0.5,1.1-1,2.2-1.5,3.3c-0.4,1.1-0.9,2.3-1.3,3.5c-1,2.3-1.5,4.8-2.2,7.2c-0.3,1.2-0.5,2.5-0.7,3.8
		c-0.2,1.3-0.5,2.6-0.6,3.9c-0.1,1.3-0.3,2.7-0.4,4c-0.1,1.3,0,2.7,0,4c-0.2,5.5,0.8,11,2,16.6c1.6,5.5,3.4,11.1,6.4,16.2l1,2
		l1.2,1.9c0.8,1.2,1.7,2.5,2.5,3.7c1.9,2.3,3.7,4.8,5.9,6.9c4.2,4.5,9.1,8.2,14.5,11.4l4.1,2.3l4.3,1.9c0.7,0.3,1.4,0.6,2.2,0.9
		l2.2,0.7c1.5,0.5,3,1,4.5,1.4c3.1,0.6,6,1.4,9.3,1.7c1.6,0.1,3.3,0.5,4.7,0.4l4.7,0c6.3-0.3,12.6-1,18.6-3.1l2.3-0.7l2.2-0.9
		c1.4-0.6,2.9-1.1,4.3-1.8c2.8-1.5,5.6-2.8,8.1-4.6c2.7-1.6,5-3.7,7.4-5.6c1.1-1,2.2-2.1,3.3-3.2l1.6-1.6l1.5-1.7
		c4.1-4.5,7.3-9.7,10-15c1.2-2.7,2.5-5.4,3.3-8.2c0.4-1.4,1-2.8,1.3-4.2c0.3-1.4,0.6-2.8,0.9-4.2c0.4-1.4,0.5-2.8,0.7-4.2
		c0.2-1.4,0.3-2.8,0.5-4.2c0.1-2.7,0.3-5.5,0.2-8.3c-0.3-10.9-2.8-21.2-6.6-30c-3.8-8.8-8.7-16.2-13.5-22.4
		c-4.8-6.2-9.7-11-13.8-14.8c-4.1-3.8-7.6-6.6-9.9-8.4C91.5,12.4,90.2,11.5,90.2,11.5"/>
</g>
<g>
	<path class="st5" d="M74.7,58.9L83.6,77l20,2.9c3.6,0.5,5,4.9,2.4,7.5l-14.5,14.1l3.4,19.9c0.6,3.6-3.2,6.3-6.3,4.6l-17.9-9.4
		L52.9,126c-3.2,1.7-7-1-6.3-4.6l3.4-19.9L35.5,87.4c-2.6-2.5-1.2-6.9,2.4-7.5l20-2.9l8.9-18.1C68.4,55.6,73.1,55.7,74.7,58.9z"/>
</g>
<g>
</g>
<g>
</g>
<g>
</g>
<g>
</g>
<g>
</g>
<g>
</g>
</svg>
