<?xml version="1.0" encoding="utf-8"?>
<!-- Generator: Adobe Illustrator 23.0.1, SVG Export Plug-In . SVG Version: 6.00 Build 0)  -->
<svg version="1.1" id="Слой_1" xmlns="http://www.w3.org/2000/svg" xmlns:xlink="http://www.w3.org/1999/xlink" x="0px" y="0px"
	 viewBox="0 0 175.3 174.4" style="enable-background:new 0 0 175.3 174.4;" xml:space="preserve">
<style type="text/css">
	.st0{fill:#FFFFFF;}
	.st1{opacity:0.7;}
	.st2{clip-path:url(#XMLID_2_);fill:#CCD448;}
	.st3{clip-path:url(#XMLID_3_);fill:#9CBE4E;}
	.st4{clip-path:url(#XMLID_4_);fill:#579753;}
	.st5{fill:#89B33C;}
	.st6{fill:#666666;}
</style>
<path class="st0" d="M78.8,0.6C81.9,0.3,86,0,90.7,0c8.4,0,14.7,0.9,16.8,1.3c8.2,1.3,13.9,3.1,15.2,3.5c6.1,2,9.8,4,10.9,4.6
	c2.7,1.5,4.9,2.9,6.4,4.1c2-2.2,4-4.5,6.1-6.7c2,1.2,4.5,2.7,7.1,4.9c0.6,0.5,3.2,2.6,6.1,5.9c1.1,1.2,3.2,3.7,5.4,7.2
	c1.9,3,3.1,5.3,4,7.3c1.4,2.8,2.4,4.9,3.3,7.9c0.9,3.1,1.3,5.9,1.5,7.9c0.1,2.6,0.2,5.2,0.2,7.8c-0.1,1.9-0.3,3.8-0.4,5.7
	c-0.1,1.6-0.4,3.7-1.2,6.1c-0.9,2.9-2.2,5-3,6.1c-0.9,1.4-3,4.4-6.7,6.8c-3.3,2.1-7.5,3.4-7.5,3.4l-7.9,2.1c0,0-61.9-56.2-64.6-58.8
	S78.8,0.6,78.8,0.6z"/>
<circle class="st0" cx="77.5" cy="96.9" r="77.5"/>
<g id="XMLID_255_">
	<g id="XMLID_783_" class="st1">
		<g id="XMLID_784_">
			<defs>
				<rect id="XMLID_785_" x="135.1" y="12.7" width="34.1" height="64.7"/>
			</defs>
			<clipPath id="XMLID_2_">
				<use xlink:href="#XMLID_785_"  style="overflow:visible;"/>
			</clipPath>
			<path id="XMLID_786_" class="st2" d="M148.2,69.9c-28.4-26.9-1.5-57.2-1.5-57.2c14.6,10.6,40.4,44.1,3.6,64.7
				c7.6-32.4-1.3-51.5-1.3-51.5S154.7,46.3,148.2,69.9"/>
		</g>
	</g>
	<g id="XMLID_779_" class="st1">
		<g id="XMLID_780_">
			<defs>
				<rect id="XMLID_781_" x="84.4" y="4" width="70.5" height="71.2"/>
			</defs>
			<clipPath id="XMLID_3_">
				<use xlink:href="#XMLID_781_"  style="overflow:visible;"/>
			</clipPath>
			<path id="XMLID_782_" class="st3" d="M141.1,68.6c0,0-55.1-1.1-56.7-64.5c26.2-0.7,86.1,7.6,66.7,71.1
				c-21.9-44.5-53.4-59.7-53.4-59.7S129.9,39,141.1,68.6"/>
		</g>
	</g>
	<g id="XMLID_775_" class="st1">
		<g id="XMLID_776_">
			<defs>
				<rect id="XMLID_777_" x="147.3" y="39.6" width="21.9" height="40.5"/>
			</defs>
			<clipPath id="XMLID_4_">
				<use xlink:href="#XMLID_777_"  style="overflow:visible;"/>
			</clipPath>
			<path id="XMLID_778_" class="st4" d="M163.7,39.6c2.5,4.1,16.9,34.6-14.2,40.5c13.3-18.8,12.7-32.7,12.7-32.7
				s-3.1,14.6-12.3,27.2C139.7,50.1,163.7,39.6,163.7,39.6"/>
		</g>
	</g>
	<path id="XMLID_774_" class="st5" d="M97.8,15.5c0,0,1.3,1,3.7,2.7c2.4,1.8,5.9,4.5,10.2,8.2c4.2,3.8,9.2,8.5,14.2,14.5
		c5,6.1,10.1,13.5,14,22.4c3.9,8.9,6.6,19.3,7.1,30.5c0.1,2.8,0,5.6-0.1,8.5c-0.1,1.4-0.3,2.8-0.4,4.3c-0.1,1.4-0.3,2.9-0.6,4.3
		c-0.3,1.5-0.6,2.9-0.9,4.4c-0.3,1.5-0.9,2.9-1.3,4.3c-0.8,2.9-2.1,5.6-3.3,8.5c-2.8,5.4-6,10.9-10.2,15.5l-1.5,1.8l-1.7,1.7
		c-1.1,1.1-2.3,2.2-3.4,3.3c-2.5,2-4.9,4.1-7.7,5.8c-2.6,1.9-5.5,3.3-8.4,4.8c-1.5,0.7-3,1.3-4.5,1.9l-2.3,0.9l-2.3,0.7
		c-6.2,2.1-12.8,2.9-19.3,3.3l-4.9-0.1c-1.8,0-3.2-0.3-4.9-0.4c-3.2-0.2-6.4-1.1-9.6-1.8c-1.6-0.4-3.1-1-4.7-1.5l-2.3-0.8
		c-0.8-0.3-1.5-0.6-2.2-1l-4.4-2l-4.2-2.4c-5.5-3.3-10.6-7.2-14.9-11.9c-2.3-2.2-4.1-4.8-6.1-7.2c-0.9-1.3-1.7-2.6-2.6-3.9l-1.3-1.9
		l-1.1-2c-0.7-1.4-1.4-2.7-2.1-4.1c-0.6-1.4-1.1-2.8-1.7-4.2c-0.3-0.7-0.6-1.4-0.8-2.1l-0.6-2.1c-0.4-1.4-0.8-2.9-1.2-4.3
		c-1.2-5.8-2-11.5-1.8-17.1c0-1.4,0-2.8,0.1-4.2c0.2-1.4,0.3-2.7,0.5-4c0.1-1.3,0.4-2.7,0.7-4c0.3-1.3,0.5-2.6,0.8-3.9
		c0.8-2.5,1.3-5.1,2.3-7.4c0.5-1.2,0.9-2.4,1.4-3.5c0.5-1.1,1.1-2.2,1.6-3.3c4.3-8.8,10.3-15.7,16.2-20.8c6-5.2,12-8.7,17.1-11
		c5.2-2.2,9.4-3.5,12.4-4.2c3-0.6,4.5-1,4.5-1s-1.6,0.4-4.5,1.1c-2.9,0.7-7.1,2.1-12.2,4.5c-5.1,2.4-10.9,6-16.7,11.3
		C26,52,20.3,58.9,16.2,67.5c-0.5,1.1-1,2.2-1.5,3.3c-0.4,1.1-0.9,2.3-1.3,3.5c-1,2.3-1.5,4.8-2.2,7.2c-0.3,1.2-0.5,2.5-0.7,3.8
		c-0.2,1.3-0.5,2.6-0.6,3.9c-0.1,1.3-0.3,2.7-0.4,4c-0.1,1.3,0,2.7,0,4c-0.2,5.5,0.8,11,2,16.6c1.6,5.5,3.4,11.1,6.4,16.2l1,2
		L20,134c0.8,1.2,1.7,2.5,2.5,3.7c1.9,2.3,3.7,4.8,5.9,6.9c4.2,4.5,9.1,8.2,14.5,11.4l4.1,2.3l4.3,1.9c0.7,0.3,1.4,0.6,2.2,0.9
		l2.2,0.7c1.5,0.5,3,1,4.5,1.4c3.1,0.6,6,1.4,9.3,1.7c1.6,0.1,3.3,0.5,4.7,0.4l4.7,0c6.3-0.3,12.6-1,18.6-3.1l2.3-0.7l2.2-0.9
		c1.4-0.6,2.9-1.1,4.3-1.8c2.8-1.5,5.6-2.8,8.1-4.6c2.7-1.6,5-3.7,7.4-5.6c1.1-1,2.2-2.1,3.3-3.2l1.6-1.6l1.5-1.7
		c4.1-4.5,7.3-9.7,10-15c1.2-2.7,2.5-5.4,3.3-8.2c0.4-1.4,1-2.8,1.3-4.2c0.3-1.4,0.6-2.8,0.9-4.2c0.4-1.4,0.5-2.8,0.7-4.2
		c0.2-1.4,0.3-2.8,0.5-4.2c0.1-2.7,0.3-5.5,0.2-8.3c-0.3-10.9-2.8-21.2-6.6-30c-3.8-8.8-8.7-16.2-13.5-22.4
		c-4.8-6.2-9.7-11-13.8-14.8c-4.1-3.8-7.6-6.6-9.9-8.4C99,16.5,97.8,15.5,97.8,15.5"/>
</g>
<g>
	<path class="st5" d="M59.2,114.4h-3.7L37.6,89.9v24.5h-3.8V83.7h3.9l17.7,24v-24h3.8V114.4z"/>
	<path class="st5" d="M86.5,114.4H66.4V83.7h20.1v3.4H70.2V97h16v3.4h-16V111h16.3V114.4z"/>
	<path class="st5" d="M120.2,114.4H116l-6.8-24.7l-6.8,24.7h-4.1l-8.7-30.7h4.2l6.8,25.6l7-25.6h3.2l7,25.6l6.8-25.6h4.2
		L120.2,114.4z"/>
</g>
<path class="st6" d="M173.7,78.1"/>
<g>
</g>
<g>
</g>
<g>
</g>
<g>
</g>
<g>
</g>
<g>
</g>
</svg>
